<svg fill="#000000" xmlns="http://www.w3.org/2000/svg"  viewBox="0 0 64 64" width="96px" height="96px"><path d="M 26 7 L 24.589844 13.34375 C 16.835524 14.923005 11 21.779214 11 30 L 11 55 L 20 55 L 20 52 C 20 50.895 20.896 50 22 50 L 24 50 L 24 55 L 27 55 L 27 50 L 31 50 L 31 55 L 34 55 L 34 50 L 38 50 L 38 55 L 41 55 L 41 50 L 43 50 C 44.104 50 45 49.105 45 48 L 45 45.574219 C 49.615 44.267219 53 40.034 53 35 C 53 29.594 49.097031 25.108594 43.957031 24.183594 C 41.958072 18.702848 37.22927 14.54534 31.412109 13.355469 L 30 7 L 26 7 z M 28 28 C 30.551 28 32.777 29.369203 34 31.408203 C 35.223 29.369203 37.449 28 40 28 C 43.866 28 47 31.134 47 35 C 47 38.866 43.866 42 40 42 C 37.449 42 35.223 40.630797 34 38.591797 C 32.777 40.630797 30.551 42 28 42 C 24.134 42 21 38.866 21 35 C 21 31.134 24.134 28 28 28 z M 26 32 C 24.343 32 23 33.343 23 35 C 23 36.657 24.343 38 26 38 C 27.657 38 29 36.657 29 35 C 29 33.343 27.657 32 26 32 z M 38 32 C 36.343 32 35 33.343 35 35 C 35 36.657 36.343 38 38 38 C 39.657 38 41 36.657 41 35 C 41 33.343 39.657 32 38 32 z"/></svg>